<?xml version="1.0" encoding="UTF-8" standalone="no"?>
<!DOCTYPE svg PUBLIC "-//W3C//DTD SVG 1.1//EN" "http://www.w3.org/Graphics/SVG/1.1/DTD/svg11.dtd">
<svg width="100%" height="100%" viewBox="0 0 512 390" version="1.1" xmlns="http://www.w3.org/2000/svg" xmlnsXlink="http://www.w3.org/1999/xlink" xmlSpace="preserve" xmlnsSerif="http://www.serif.com/" style="fill-rule:evenodd;clip-rule:evenodd;stroke-linejoin:round;stroke-miterlimit:2;">
    <g transform="matrix(1,0,0,1,0,-61.048)">
        <g>
            <path d="M500.009,275.11L479.678,275.11C479.739,273.171 479.78,271.231 479.78,269.295L479.78,237.124C479.78,230.502 474.412,225.133 467.789,225.133L188.58,225.133L115.375,83.757C110.221,73.798 101.501,66.441 90.821,63.043C80.139,59.644 68.77,60.61 58.823,65.764C44.825,72.999 36.128,87.29 36.128,103.057C36.128,109.706 37.752,116.365 40.826,122.319L94.006,225.134L44.209,225.134C37.587,225.134 32.218,230.502 32.218,237.125L32.218,269.296C32.218,271.232 32.259,273.173 32.32,275.111L11.99,275.111C5.368,275.11 0,280.479 0,287.101C0,293.723 5.368,299.092 11.991,299.092L34.665,299.092C41.316,339.348 61.381,376.246 91.905,403.917C125.365,434.248 168.681,450.954 213.877,450.954L298.123,450.954C343.318,450.954 386.635,434.25 420.095,403.917C450.618,376.246 470.684,339.347 477.335,299.092L500.009,299.092C506.631,299.092 512,293.724 512,287.101C512,280.479 506.632,275.11 500.009,275.11ZM62.129,111.309C60.788,108.712 60.109,105.935 60.109,103.057C60.109,96.294 63.836,90.167 69.844,87.062C74.108,84.855 78.972,84.44 83.549,85.895C88.126,87.352 91.866,90.507 94.077,94.782L161.575,225.135L121.005,225.135L62.129,111.309ZM455.8,269.295C455.8,271.233 455.752,273.173 455.681,275.11L442.653,275.11C436.031,275.11 430.662,280.478 430.662,287.101C430.662,293.724 436.03,299.092 442.653,299.092L452.989,299.092C438.998,372.865 374.628,426.972 298.123,426.972L213.877,426.972C137.367,426.972 72.987,372.87 58.999,299.092L336.338,299.092C342.96,299.092 348.329,293.724 348.329,287.101C348.329,280.478 342.961,275.11 336.338,275.11L56.319,275.11C56.248,273.172 56.2,271.232 56.2,269.295L56.2,249.115L455.8,249.115L455.8,269.295Z" style="fill:rgb(95,95,95);fill-rule:nonzero;"/>
        </g>
    </g>
</svg>
