<?xml version="1.0" encoding="UTF-8" standalone="no"?>
<!DOCTYPE svg PUBLIC "-//W3C//DTD SVG 1.1//EN" "http://www.w3.org/Graphics/SVG/1.1/DTD/svg11.dtd">
<svg width="100%" height="100%" viewBox="0 0 492 333" version="1.1" xmlns="http://www.w3.org/2000/svg" xmlnsXlink="http://www.w3.org/1999/xlink" xmlSpace="preserve" xmlnsSerif="http://www.serif.com/" style="fill-rule:evenodd;clip-rule:evenodd;stroke-linejoin:round;stroke-miterlimit:2;">
    <g transform="matrix(1,0,0,1,-512,-129.655)">
        <g transform="matrix(0.960203,0,0,0.914976,512,61.4374)">
            <path d="M495.109,403.661L481.048,403.661C478.145,334.398 457.285,274.762 420.251,230.405C400.311,206.522 376.31,187.964 348.912,175.246C335.314,168.933 321.024,164.148 306.15,160.881C311.27,152.325 314.223,142.33 314.223,131.654C314.223,100.171 288.609,74.557 257.126,74.557C225.643,74.557 200.029,100.171 200.029,131.654C200.029,142.332 202.983,152.331 208.106,160.889C107.452,183.068 41.22,274.556 35.918,403.661L16.891,403.661C7.562,403.661 0,411.224 0,420.552C0,429.88 7.562,437.443 16.891,437.443L495.11,437.443C504.438,437.443 512,429.881 512,420.552C512,411.224 504.438,403.661 495.109,403.661ZM257.126,108.339C269.982,108.339 280.442,118.799 280.442,131.655C280.442,144.511 269.982,154.972 257.126,154.972C244.27,154.972 233.81,144.512 233.81,131.655C233.81,118.798 244.27,108.339 257.126,108.339ZM69.713,403.66C72.439,342.244 90.166,290.05 121.393,251.934C154.878,211.061 201.814,189.457 257.127,189.457C312.691,189.457 360.132,211.103 394.322,252.054C426.295,290.348 444.45,342.504 447.252,403.66L69.713,403.66Z" style="fill:rgb(95,95,95);fill-rule:nonzero;"/>
        </g>
        <g transform="matrix(1.15193,0,0,1,103.984,0)">
            <path d="M780.987,397.324C780.987,389.97 775.804,384 769.42,384L523.567,384C517.183,384 512,389.97 512,397.324C512,404.678 517.183,410.649 523.567,410.649L769.42,410.649C775.804,410.649 780.987,404.678 780.987,397.324Z" style="fill:rgb(95,95,95);"/>
        </g>
        <g transform="matrix(0.358592,0,0,1,328.401,0)">
            <path d="M780.987,397.324C780.987,389.97 764.337,384 743.83,384L549.158,384C528.65,384 512,389.97 512,397.324C512,404.678 528.65,410.649 549.158,410.649L743.83,410.649C764.337,410.649 780.987,404.678 780.987,397.324Z" style="fill:rgb(95,95,95);"/>
        </g>
    </g>
</svg>
